HIERARCHY
ROOT Hip
{
    OFFSET 0.0 0.0 0.0
    CHANNELS 6 Xposition Yposition Zposition Zrotation Xrotation Yrotation
    JOINT RightHip
    {
        OFFSET -6.560989323148883 0.0 0.0
        CHANNELS 3 Zrotation Xrotation Yrotation
        JOINT RightKnee
        {
            OFFSET 0.0 0.0 -22.994128291664104
            CHANNELS 3 Zrotation Xrotation Yrotation
            JOINT RightAnkle
            {
                OFFSET 0.0 0.0 -28.20618287084085
                CHANNELS 3 Zrotation Xrotation Yrotation
                End Site
                {
                    OFFSET 0.0 -11.28247314833634 0.0
                }
            }
        }
    }
    JOINT LeftHip
    {
        OFFSET 6.560989323148883 0.0 0.0
        CHANNELS 3 Zrotation Xrotation Yrotation
        JOINT LeftKnee
        {
            OFFSET 0.0 0.0 -22.994128291664104
            CHANNELS 3 Zrotation Xrotation Yrotation
            JOINT LeftAnkle
            {
                OFFSET 0.0 0.0 -28.20618287084085
                CHANNELS 3 Zrotation Xrotation Yrotation
                End Site
                {
                    OFFSET 0.0 -11.28247314833634 0.0
                }
            }
        }
    }
    JOINT Spine
    {
        OFFSET 0.0 0.0 18.917622364996536
        CHANNELS 3 Zrotation Xrotation Yrotation
        JOINT Thorax
        {
            OFFSET 0.0 0.0 22.20101329536154
            CHANNELS 3 Zrotation Xrotation Yrotation
            JOINT Neck
            {
                OFFSET 0.0 0.0 2.921165374096469
                CHANNELS 3 Zrotation Xrotation Yrotation
                JOINT Head
                {
                    OFFSET 0.0 0.0 9.057748152482445
                    CHANNELS 3 Zrotation Xrotation Yrotation
                    End Site
                    {
                        OFFSET -3.6230992609929786 0.0 0.0
                    }
                }
            }
            JOINT LeftShoulder
            {
                OFFSET 10.959546843601824 0.0 0.0
                CHANNELS 3 Zrotation Xrotation Yrotation
                JOINT LeftElbow
                {
                    OFFSET 21.527652655272142 0.0 0.0
                    CHANNELS 3 Zrotation Xrotation Yrotation
                    JOINT LeftWrist
                    {
                        OFFSET 12.170341308174645 0.0 0.0
                        CHANNELS 3 Zrotation Xrotation Yrotation
                        End Site
                        {
                            OFFSET 4.868136523269859 0.0 0.0
                        }
                    }
                }
            }
            JOINT RightShoulder
            {
                OFFSET -10.959546843601824 0.0 0.0
                CHANNELS 3 Zrotation Xrotation Yrotation
                JOINT RightElbow
                {
                    OFFSET -21.527652655272142 0.0 0.0
                    CHANNELS 3 Zrotation Xrotation Yrotation
                    JOINT RightWrist
                    {
                        OFFSET -12.170341308174645 0.0 0.0
                        CHANNELS 3 Zrotation Xrotation Yrotation
                        End Site
                        {
                            OFFSET -4.868136523269859 0.0 0.0
                        }
                    }
                }
            }
            JOINT Nose
            {
                OFFSET 0.0 0.0 8.75181327248609
                CHANNELS 3 Zrotation Xrotation Yrotation
                End Site
                {
                    OFFSET -3.5007253089944363 0.0 0.0
                }
            }
        }
    }
}
MOTION
Frames: 11
Frame Time: 0.03333333333333333
16.478338946280502 41.156379939227634 8.360094079599897 -22.749329573120242 -0.5108852696899305 3.167777958388075 -0.695147897535888 -15.545229359949712 11.837628601808252 -1.7014209423012923 28.093568320796876 -16.42616901489026 0.0 0.0 3.975693351829396e-16 1.256315200386942 -7.168244723710696 -5.697203812142796 -4.059552446873752 17.919454058977927 13.048413714714806 0.0 0.0 0.0 3.193744314598377e-15 2.8685158910593946 -4.86979065917897e-16 2.0624487026457947 0.0003196909267603495 -0.017086864382222886 0.0912252539595879 -13.293306086807249 27.877868980835547 0.0 0.0 -4.969616689786745e-15 -81.91341902225841 -27.388419470219166 8.050372682069453 1.5993978424334507e-14 1.6743262600109796e-14 -55.48691472025153 0.0 0.0 0.0 85.35243572353647 -27.62228175354535 -6.924874875187922 -1.125720833957276e-14 -5.927065859928114e-15 55.53477095330609 -6.3611093629270335e-15 0.0 0.0 0.0 0.0 9.93923337957349e-17
16.82602305983455 42.02475748158264 8.155214822395534 -23.66498729143492 -0.852839204156545 6.86622131357896 6.140680117217013 -18.247711016459913 16.39182946807337 -10.935732379114036 33.941064988209796 -16.289697284357988 0.0 0.0 3.975693351829396e-16 6.573374200773919 -4.37450929608415 -3.578189906345008 -9.438835634214202 12.465906119187382 10.215057871446778 0.0 0.0 -3.975693351829396e-16 6.371983912580379e-15 2.55948706995164 -4.1574374923049966e-16 3.3007887628928585 0.013903146169010436 -2.466887694456417 -0.9343828914464964 -14.139563509083144 26.642961230688677 0.0 0.0 -3.776908684237926e-15 -73.2048750397026 -38.330605361331294 7.1810657981598425 7.110851950218856e-15 1.241972260807798e-16 -51.12886439509682 0.0 0.0 0.0 85.46147292297444 -30.171893193858946 -6.58369921467354 -3.8353319418668776e-15 6.9652551573375605e-15 57.67767431275974 0.0 0.0 0.0 0.0 0.0 -9.93923337957349e-17
16.931616958669448 42.288489319717605 8.092991675823026 -25.295534451989774 -2.267847549033456 8.598956388810313 16.281191712778746 -16.38297341083807 18.209571216774016 -32.59896483374557 36.57280842678991 -7.436916601618708 0.0 0.0 0.0 10.552579002995065 -1.682185665544872 -1.72696791933077 -13.770898485171202 7.81711201023599 6.35262528112993 0.0 0.0 0.0 4.0517484644406564e-18 3.3918878142919846 -1.368443160136335e-16 5.330797843499541 -0.005798115207036972 -4.031895342584533 -2.219651286199504 -13.76954857064903 27.62248818828061 0.0 0.0 9.93923337957349e-16 -64.6637301070186 -53.57960357190547 4.903940397491811 -1.3806855319847578e-15 -2.8652461575835783e-15 -51.45634834644927 0.0 0.0 0.0 83.64912833769853 -24.871693294249688 -4.814617603302188 7.424819278109242e-15 1.1734859937227155e-14 68.09696113084946 0.0 0.0 0.0 0.0 0.0 1.987846675914698e-16
17.201381706480454 42.96225507312965 7.934027837681339 -26.36958422022246 -2.5428322213780152 8.951889430440298 22.877766562765512 -13.885503574613754 17.792794787842872 -52.23800912897225 35.761429483225314 0.3378040324384192 0.0 0.0 0.0 13.29044295628628 -1.3519676999777466 -0.35245937740814515 -15.59392757034482 4.863646311444107 4.491748536792375 0.0 0.0 -3.9756933518293955e-16 3.2333017509998843e-15 3.323985986113267 -1.771767020794756e-15 6.347883534050421 -0.07352002456665133 -4.750355106256624 -3.088726496685096 -10.176676297373454 33.232732263514414 0.0 0.0 3.4787316828507215e-16 -59.79990019304893 -64.83863625237706 3.785672092009525 -1.823025904340736e-14 -5.861744465154609e-15 -61.08364500455011 0.0 0.0 0.0 82.81531193943732 -24.681470859130716 -3.7518974565471415 6.811901523050345e-15 -7.774798261309435e-15 82.44654471284055 -3.1805546814635164e-15 -1.7655625192200634e-31 6.361109362927033e-15 0.0 0.0 -1.4908850069360235e-16
17.343000651481297 43.31596324274846 7.850576270219002 -25.447424342005082 -2.7319276926326888 9.959711523058342 25.955060831999194 -13.346379210484288 16.846727318058736 -65.43077770034103 35.51596078420939 7.383845843688333 0.0 0.0 0.0 13.865572308932803 -1.9621078967662668 0.2101267267526985 -17.85165161091859 5.586751410496662 5.338718550160469 0.0 0.0 3.975693351829396e-16 -3.5975772384839864e-17 3.895471624069321 1.0578774789655152e-15 3.519010400221211 0.021771306457738095 -5.666983264815949 -0.5617468472911806 -8.640238344992744 35.92426193157145 0.0 0.0 -3.0811623476677818e-15 -57.05304535513591 -70.29098458464469 1.1337836989425187 -1.9563692569725057e-14 -5.65817853997589e-15 -70.41870657311297 1.5902773407317588e-15 0.0 0.0 79.10427343802996 -26.079433885132854 -1.9000680617439654 6.090896535551238e-15 -4.467788740473008e-15 107.47848536041263 1.5902773407317584e-15 0.0 0.0 0.0 0.0 9.93923337957349e-17
17.309616994769005 43.23258405848171 7.8702482038028085 -25.47334464107636 -2.9208573947033973 9.140453356899119 28.73407573398287 -11.511176717492544 12.979289858104366 -75.49522985793143 31.638793958378677 12.245689312828056 0.0 0.0 0.0 11.899520374913507 -1.6928049268212595 1.5539079940958878 -13.2979218714975 5.636768949102131 4.23900609976283 0.0 0.0 1.987846675914698e-16 0.0 4.557307140016518 0.0 3.4749392733982134 0.021631342138775763 -5.109604673251184 0.08915775946592737 -7.706313354932348 48.207203130425235 0.0 0.0 2.3854160110976376e-15 -58.751267239653835 -74.4922731542256 -7.974210426314501 2.0333357268349717e-15 1.3009952943755335e-14 -75.53904376921483 -7.951386703658794e-16 0.0 0.0 76.56769671909535 -24.90600078620562 -0.8242838384134287 -8.48448951501133e-15 5.046598357403396e-15 127.75124403746767 -3.975693351829396e-16 -1.3793457181406746e-33 3.975693351829396e-16 0.0 0.0 0.0
17.460738882081195 43.61002682329131 7.781196852841299 -26.01522195670251 -2.8018248543895194 8.959320183372277 32.252072661191335 -10.684117231971218 13.721341772347788 -69.86106100879957 31.851296891656826 7.369484170745587 6.3611093629270335e-15 0.0 0.0 10.167330444040008 -1.551280356189222 1.331571532165213 -9.86719933487587 5.009592457405493 3.472480062507072 0.0 0.0 -3.975693351829396e-16 -3.153150999926674e-15 4.622490592374267 -7.431274938041235e-16 1.4205307646617182 0.19190748618975093 -4.631128734883793 2.529722775973193 -7.299739800510119 50.32892702042385 3.310429723537619e-32 -1.5902773407317584e-15 2.3854160110976376e-15 -56.91344027437516 -73.86594207349404 -7.790703447675436 -5.136094283353479e-15 -4.999048189684734e-15 -85.18973766436042 -7.951386703658792e-16 -1.3793457181406746e-33 1.987846675914698e-16 69.23417387480039 -35.45784715898403 1.7753621326334326 1.3011385320541475e-14 -8.666386508225514e-15 136.14500774983628 7.951386703658792e-16 -1.1034765745125397e-32 -1.5902773407317584e-15 0.0 0.0 -9.93923337957349e-16
17.239552543423372 43.057590742152016 7.911534970118902 -26.677031817418108 -2.855689778544491 8.994099263056173 31.1013233941337 -10.565093158750381 14.163267868779537 -52.951968966129684 31.537501175705675 -1.355077624808714 0.0 9.93923337957349e-17 0.0 11.5202195156263 -1.5676765925548435 0.5776053578211459 -11.95207728748642 5.6321465725727755 4.1664759626313925 0.0 -3.9756933518293955e-16 0.0 -6.366940497305218e-15 4.912779666830828 -4.488934769652172e-19 1.6503575584044305 0.19381796738039825 -5.261353021625165 1.6963613742270929 -7.395635406424716 42.14889108225005 0.0 0.0 2.1866313435061676e-15 -57.3495376709307 -72.21121013979997 -14.827216645314166 1.0803687231183275e-14 -1.6775750417960957e-15 -91.39237000555694 0.0 0.0 -3.975693351829396e-16 63.74016246001297 -41.52599766370426 4.522012662300907 1.444652784042188e-14 -1.887455184943098e-14 139.58255438608484 1.5902773407317584e-15 0.0 0.0 0.0 0.0 9.93923337957349e-17
17.425050366894393 43.52089101322675 7.80222696666346 -27.655725491258806 -3.2564774044903215 10.878549876897564 27.688067815150415 -12.5868432081578 17.69329367361307 -35.15572938632629 32.70592372483568 -9.95050857842824 0.0 0.0 0.0 11.513586864933606 -1.328542382354994 -0.9550879955355783 -12.317313303588408 6.298795574310703 4.992728513283807 -3.1805546814635168e-15 0.0 0.0 -3.1526793120955426e-15 5.6979775948230635 -6.392287794764776e-16 2.6863587513170852 0.1579461141853809 -6.855635875638162 0.660676263838907 -7.535304851375841 34.68302389359915 0.0 0.0 -2.981770013872047e-16 -55.52448893004069 -68.6094877067193 -17.951517115421154 2.9293458711590987e-15 3.848638259987319e-15 -93.47694723404261 0.0 0.0 7.951386703658792e-16 55.59230908236884 -41.61079868702574 6.906333765042491 8.397674550139513e-15 -3.0818231439486743e-15 139.69521057419018 -1.5902773407317584e-15 2.2069531490250793e-32 -1.5902773407317584e-15 0.0 0.0 9.93923337957349e-17
17.10876535115956 42.73093601114169 7.988603728104272 -27.605181975417388 -2.3280202028218877 9.527025675727062 17.156666963463902 -13.005301921288636 12.760130358643341 -14.255090512378052 25.66816795978074 -12.525370777622369 6.3611093629270335e-15 -4.4139062980501586e-32 -7.951386703658792e-16 8.351979732435066 -2.8426693825665086 -2.396044211605726 -8.774324355398154 9.638255926767831 6.547180718352089 0.0 0.0 -3.975693351829396e-16 8.432098903622733e-18 5.1655180831901495 -1.8693048504466715e-16 1.8546077614503613 0.19089711674431353 -5.922499690714194 2.232747249340933 -6.908711778628313 28.563586492264818 0.0 0.0 7.951386703658792e-16 -50.438342927653814 -64.47267117370546 -16.563872438458443 -1.995851685172871e-14 -6.6623959679226305e-15 -98.673768047123 7.951386703658792e-16 -1.1034765745125397e-32 -1.5902773407317584e-15 52.450493071155336 -43.667188914430646 7.711775582905429 8.956503577985832e-15 1.0126179436428063e-14 136.549467078388 -1.5902773407317584e-15 4.4139062980501586e-32 -3.1805546814635168e-15 0.0 0.0 0.0
15.817260087876791 39.50526614948517 8.749646952979042 -26.11780078131642 -1.7942723937370757 6.580492062879042 6.620898961011789 -8.927498640269427 7.715142778373627 1.4789264206187427 17.793455487199026 -12.251830002010294 0.0 0.0 0.0 3.3813565415971394 -2.978912270204542 -3.676026739217248 -5.313939744197349 12.88420470576232 9.279359723759928 0.0 0.0 0.0 -1.7852645045670176e-17 4.827237204197005 4.23544998047012e-16 -0.5129259703700595 0.20426794132522313 -3.9481570156885186 2.9831622716056074 -7.544337302492452 22.087686630794163 -3.1805546814635164e-15 7.951386703658791e-16 4.2241741863187325e-16 -45.54951985298602 -63.611681988843706 -16.38620033428832 -3.211784286068741e-15 -8.698840750059034e-15 -102.45780233842162 -1.5902773407317588e-15 1.3241718894150476e-31 -9.541664044390553e-15 51.340281807349314 -47.19433087419598 8.733344342860022 1.942460732551807e-15 -7.638147590556793e-16 137.06849292044936 3.1805546814635168e-15 -3.1805546814635168e-15 1.5902773407317584e-15 0.0 -3.975693351829396e-16 0.0
